<svg width="910" height="721" viewBox="0 0 910 721" fill="none" xmlns="http://www.w3.org/2000/svg">
<path d="M402.565 248.945C400.234 238.431 406.868 228.018 417.382 225.687L472.055 213.566C482.569 211.235 492.982 217.869 495.313 228.383L507.434 283.056C509.765 293.57 503.131 303.983 492.617 306.314L437.944 318.435C427.43 320.766 417.017 314.132 414.686 303.618L402.565 248.945Z" stroke="#EAECF0"/>
<path d="M345.315 212.471C342.984 201.957 349.618 191.544 360.132 189.213L508.529 156.314C519.043 153.983 529.457 160.617 531.788 171.131L564.686 319.528C567.017 330.043 560.383 340.456 549.869 342.787L401.472 375.686C390.958 378.017 380.545 371.383 378.214 360.868L345.315 212.471Z" stroke="#EAECF0"/>
<path d="M288.063 175.999C285.732 165.484 292.366 155.071 302.88 152.74L545.002 99.0634C555.516 96.7324 565.929 103.366 568.26 113.881L621.937 356.002C624.268 366.516 617.634 376.929 607.12 379.26L364.998 432.937C354.484 435.268 344.071 428.634 341.74 418.12L288.063 175.999Z" stroke="#EAECF0"/>
<path d="M230.811 139.525C228.48 129.011 235.114 118.598 245.628 116.267L581.474 41.8115C591.988 39.4806 602.401 46.1145 604.732 56.6287L679.188 392.475C681.519 402.989 674.885 413.402 664.37 415.733L328.525 490.188C318.01 492.519 307.597 485.885 305.266 475.371L230.811 139.525Z" stroke="#EAECF0"/>
<path d="M173.561 103.052C171.23 92.5382 177.864 82.1251 188.378 79.7941L617.949 -15.4393C628.463 -17.7703 638.876 -11.1364 641.207 -0.622112L736.44 428.948C738.771 439.462 732.137 449.876 721.623 452.206L292.053 547.44C281.539 549.771 271.125 543.137 268.795 532.623L173.561 103.052Z" stroke="#EAECF0"/>
<path d="M116.309 66.5788C113.978 56.0646 120.612 45.6514 131.126 43.3205L654.421 -72.6911C664.935 -75.0221 675.348 -68.3882 677.679 -57.8739L793.691 465.421C796.022 475.935 789.388 486.348 778.874 488.679L255.579 604.691C245.065 607.022 234.652 600.388 232.321 589.873L116.309 66.5788Z" stroke="#EAECF0"/>
<path d="M59.0572 30.1062C56.7262 19.5919 63.3601 9.17879 73.8744 6.84783L690.893 -129.942C701.408 -132.273 711.821 -125.639 714.152 -115.125L850.942 501.894C853.273 512.409 846.639 522.822 836.124 525.153L219.105 661.942C208.591 664.273 198.178 657.64 195.847 647.125L59.0572 30.1062Z" stroke="#EAECF0"/>
<path d="M1.80718 -6.36744C-0.52378 -16.8817 6.1101 -27.2948 16.6244 -29.6258L727.368 -187.194C737.882 -189.525 748.295 -182.891 750.626 -172.377L908.194 538.367C910.525 548.881 903.891 559.294 893.377 561.625L182.634 719.193C172.119 721.524 161.706 714.89 159.375 704.376L1.80718 -6.36744Z" stroke="#EAECF0"/>
</svg>
