<svg xmlns="http://www.w3.org/2000/svg" xmlns:xlink="http://www.w3.org/1999/xlink" viewBox="0 0 252.99 84.99"><defs><style>.cls-1{fill:#1b1464;}.cls-2{fill:url(#linear-gradient);}.cls-3{fill:#ed1c24;}.cls-4{fill:#00aeef;}</style><linearGradient id="linear-gradient" x1="115.76" y1="49.03" x2="180.57" y2="72.62" gradientUnits="userSpaceOnUse"><stop offset="0.02" stop-color="#1b1464"/><stop offset="0.08" stop-color="#172a78"/><stop offset="0.21" stop-color="#10529c"/><stop offset="0.35" stop-color="#0a74ba"/><stop offset="0.48" stop-color="#068dd1"/><stop offset="0.62" stop-color="#03a0e2"/><stop offset="0.77" stop-color="#01aaec"/><stop offset="0.94" stop-color="#00aeef"/></linearGradient></defs><title>LOGO1</title><g id="Layer_2" data-name="Layer 2"><path class="cls-1" d="M29.32,84.83s23.06-49,24-51.18c.84-1.81,3.35-3.46,7.12-3.68S90.78,30,95,30s12.15,1.87,15.92,4.1,6.65,6.35,5.72,11.17c-1.4,7.26-4.95,10.74-9.49,12.84-7.54,3.49-21.63,4.05-21.63,4.05A60.31,60.31,0,0,0,92.6,72.18c3.18,3.51,13.81,12.49,13.81,12.49s-20.1-.06-23.73-.35C76.35,83.82,73.31,79.23,70,75c-2.7-3.53-7.54-13.12-7.54-13.12l-.19-3.48S60.56,58.74,65,58s15-1.35,21.29-5c4.94-2.86,8.26-6.41,8.94-9.77.42-2.1-.56-5.17-7.12-5.17-8.79,0-13.57.32-13.57.32L55.05,78.74s-1.89,6.14-6.7,6.14Z"/><path class="cls-2" d="M187.43,36.14c5.16,4.82,2.62,12,0,16.06h0c-7.61,12-41,12.86-52.3,13l3.33-7.36c6.5-.75,24.53-1.94,29.3-13.19,3.41-8.08-5.44-6.41-11.61-6.41h-8.15L137.46,60.54l-3,6.78-3.54,7.3c-.65,1.27-4.37,7.89-6,8.72A11.7,11.7,0,0,1,119,84.61H102.81l23.81-50.45A9.51,9.51,0,0,1,130.5,31a11,11,0,0,1,5.15-1.12h7c1.56,0,6.54,0,4.79,0l3.93.05c6.19,0,11-.05,15,0,8.25.14,14.72,1.86,20.15,5.54"/><path class="cls-1" d="M49,32a13,13,0,0,0-2.26,3.31C46.32,35.83,26,80,25.39,80.84a9.43,9.43,0,0,1-3.24,2.53A14.48,14.48,0,0,1,18,84.59c.57,0-18,0-18,0S23.93,33.72,23.76,34.05a8.29,8.29,0,0,1,2.39-2.33,12.79,12.79,0,0,1,5.14-1.94c.55-.06,21,0,21,0A10.63,10.63,0,0,0,49,32Z"/><path class="cls-3" d="M54.17,12.89A12.89,12.89,0,1,1,41.28,0,12.89,12.89,0,0,1,54.17,12.89Z"/><path class="cls-4" d="M238.33,50.39l14.31.11s1.45-6.93-1.6-11.2a16.17,16.17,0,0,0-7-5.64S240,31.1,230,30.22a65.49,65.49,0,0,0-24.08,2.34,59.41,59.41,0,0,0-14.62,6.51c-5.1,3.33-8.28,6.85-12,11.24-3.28,3.84-5.06,9.48-5.58,13.17-.67,4.69-.59,10.8,5.91,16.52,4.8,4.23,10.53,4.33,15.26,4.77a70.56,70.56,0,0,0,21-1.61,61.27,61.27,0,0,0,16.43-6.39c7.42-4,18.06-13.88,17.2-13.24L227,63.64s-2.26-.32-5.77,1.55c-5.46,2.92-9.9,4.86-16.1,5-5.75.15-9.2-2.47-9.87-3.36-1.94-2.59-2.25-5.7,0-9.59,1.81-3.21,5.8-7,11.59-9.62a42.09,42.09,0,0,1,14.63-3.2c3.55-.12,7.63.32,9.5,1.6,2.45,1.68,1.91,2.23,3.45,3.32C235.55,50.2,238.33,50.39,238.33,50.39Z"/></g></svg>