<svg width="40" height="40" viewBox="0 0 40 40" fill="none" xmlns="http://www.w3.org/2000/svg">
<path d="M0 20C0 8.95431 8.95431 0 20 0C31.0457 0 40 8.95431 40 20C40 31.0457 31.0457 40 20 40C8.95431 40 0 31.0457 0 20Z" fill="#EFF4FF"/>
<path d="M26.4564 14.1667C27.6375 15.8085 28.3332 17.823 28.3332 20C28.3332 22.177 27.6375 24.1915 26.4564 25.8333M23.1209 16.6667C23.78 17.6115 24.1665 18.7606 24.1665 20C24.1665 21.2394 23.78 22.3885 23.1209 23.3333M18.0284 14.4714L15.3904 17.1095C15.2462 17.2536 15.1742 17.3257 15.0901 17.3772C15.0155 17.4229 14.9342 17.4566 14.8492 17.477C14.7533 17.5 14.6514 17.5 14.4476 17.5H12.9998C12.5331 17.5 12.2998 17.5 12.1215 17.5908C11.9647 17.6707 11.8372 17.7982 11.7573 17.955C11.6665 18.1333 11.6665 18.3666 11.6665 18.8333V21.1667C11.6665 21.6334 11.6665 21.8667 11.7573 22.045C11.8372 22.2018 11.9647 22.3293 12.1215 22.4092C12.2998 22.5 12.5331 22.5 12.9998 22.5H14.4476C14.6514 22.5 14.7533 22.5 14.8492 22.523C14.9342 22.5434 15.0155 22.5771 15.0901 22.6228C15.1742 22.6743 15.2462 22.7464 15.3904 22.8905L18.0284 25.5286C18.3854 25.8856 18.5639 26.0641 18.7171 26.0761C18.8501 26.0866 18.9801 26.0328 19.0667 25.9314C19.1665 25.8145 19.1665 25.562 19.1665 25.0572V14.9428C19.1665 14.438 19.1665 14.1855 19.0667 14.0687C18.9801 13.9672 18.8501 13.9134 18.7171 13.9239C18.5639 13.9359 18.3854 14.1144 18.0284 14.4714Z" stroke="#2970FF" stroke-width="1.66667" stroke-linecap="round" stroke-linejoin="round"/>
</svg>
