<svg width="40" height="40" viewBox="0 0 40 40" fill="none" xmlns="http://www.w3.org/2000/svg">
<path d="M0 20C0 8.95431 8.95431 0 20 0C31.0457 0 40 8.95431 40 20C40 31.0457 31.0457 40 20 40C8.95431 40 0 31.0457 0 20Z" fill="#EFF4FF"/>
<g clip-path="url(#clip0_154_8092)">
<path d="M12.6249 19.1667C12.5429 18.7628 12.4998 18.3448 12.4998 17.9167C12.4998 14.4649 15.2981 11.6667 18.7498 11.6667C21.9191 11.6667 24.5374 14.0255 24.9448 17.0833M14.9998 28.3333C13.1589 28.3333 11.6665 26.841 11.6665 25C11.6665 23.1591 13.1589 21.6667 14.9998 21.6667C15.0943 21.6667 15.1878 21.6706 15.2803 21.6783C15.9634 19.7302 17.8185 18.3333 19.9998 18.3333C21.8539 18.3333 23.4722 19.3424 24.3356 20.8414C24.4174 20.836 24.5 20.8333 24.5832 20.8333C26.6542 20.8333 28.3332 22.5123 28.3332 24.5833C28.3332 26.6544 26.6542 28.3333 24.5832 28.3333C21.4693 28.3333 18.3787 28.3333 14.9998 28.3333Z" stroke="#2970FF" stroke-width="1.66667" stroke-linecap="round" stroke-linejoin="round"/>
</g>
<defs>
<clipPath id="clip0_154_8092">
<rect width="20" height="20" fill="white" transform="translate(10 10)"/>
</clipPath>
</defs>
</svg>
