<svg width="40" height="40" viewBox="0 0 40 40" fill="none" xmlns="http://www.w3.org/2000/svg">
<path d="M0 20C0 8.95431 8.95431 0 20 0C31.0457 0 40 8.95431 40 20C40 31.0457 31.0457 40 20 40C8.95431 40 0 31.0457 0 20Z" fill="#EFF4FF"/>
<path d="M11.6665 15C12.1665 15.4167 12.6665 15.8333 13.7498 15.8333C15.8332 15.8333 15.8332 14.1667 17.9165 14.1667C18.9998 14.1667 19.4998 14.5833 19.9998 15C20.4998 15.4167 20.9998 15.8333 22.0832 15.8333C24.1665 15.8333 24.1665 14.1667 26.2498 14.1667C27.3332 14.1667 27.8332 14.5833 28.3332 15M11.6665 25C12.1665 25.4167 12.6665 25.8333 13.7498 25.8333C15.8332 25.8333 15.8332 24.1667 17.9165 24.1667C18.9998 24.1667 19.4998 24.5833 19.9998 25C20.4998 25.4167 20.9998 25.8333 22.0832 25.8333C24.1665 25.8333 24.1665 24.1667 26.2498 24.1667C27.3332 24.1667 27.8332 24.5833 28.3332 25M11.6665 20C12.1665 20.4167 12.6665 20.8333 13.7498 20.8333C15.8332 20.8333 15.8332 19.1667 17.9165 19.1667C18.9998 19.1667 19.4998 19.5833 19.9998 20C20.4998 20.4167 20.9998 20.8333 22.0832 20.8333C24.1665 20.8333 24.1665 19.1667 26.2498 19.1667C27.3332 19.1667 27.8332 19.5833 28.3332 20" stroke="#2970FF" stroke-width="1.66667" stroke-linecap="round" stroke-linejoin="round"/>
</svg>
