<svg width="18" height="14" viewBox="0 0 18 14" fill="none" xmlns="http://www.w3.org/2000/svg">
<path d="M16.5 12C16.5 12 15.508 11.6087 14.8333 11.4184C10.5664 10.2145 7.43357 13.7855 3.16667 12.5816C2.49201 12.3913 1.5 12 1.5 12M16.5 7C16.5 7 15.508 6.60874 14.8333 6.41838C10.5664 5.21449 7.43357 8.78551 3.16667 7.58162C2.49201 7.39127 1.5 7 1.5 7M16.5 2C16.5 2 15.508 1.60874 14.8333 1.41838C10.5664 0.214495 7.43357 3.78551 3.16667 2.58162C2.49201 2.39127 1.5 2 1.5 2" stroke="white" stroke-width="1.33333" stroke-linecap="round" stroke-linejoin="round"/>
</svg>
